<svg xmlns="http://www.w3.org/2000/svg" viewBox="0 0 64 64" role="img" aria-label="FindTheFlag icon">
  <defs>
    <linearGradient id="bg" x1="0" y1="0" x2="1" y2="1">
      <stop offset="0%" stop-color="#ef8d35" />
      <stop offset="100%" stop-color="#0c7f6f" />
    </linearGradient>
    <linearGradient id="flagShade" x1="0" y1="0" x2="1" y2="1">
      <stop offset="0%" stop-color="#fffaf2" />
      <stop offset="100%" stop-color="#f3eee5" />
    </linearGradient>
  </defs>

  <rect x="4" y="4" width="56" height="56" rx="16" fill="url(#bg)" />
  <rect x="19" y="13" width="4" height="38" rx="2" fill="#fff9f1" />

  <path
    d="M23 15.5 C34.5 10.5 44 12.5 51 18 C44.5 22.5 35 24.5 23 21.5 Z"
    fill="url(#flagShade)"
  />
  <path
    d="M23 21.5 C32.5 24 40 23.3 46.8 19.5 C44.7 22.9 40.2 26.7 33.2 28.5 C29.3 29.5 25.6 29.8 23 29.5 Z"
    fill="#ffd4a8"
  />

  <circle cx="44.5" cy="43.5" r="5.2" fill="#fff4df" />
  <path d="M44.5 39.6 L45.7 42.2 L48.5 42.5 L46.4 44.4 L47 47.2 L44.5 45.8 L42 47.2 L42.6 44.4 L40.5 42.5 L43.3 42.2 Z" fill="#ef8d35" />
</svg>
